<?xml version="1.0" encoding="iso-8859-1"?>
<!-- Generator: Adobe Illustrator 18.0.0, SVG Export Plug-In . SVG Version: 6.00 Build 0)  -->
<!DOCTYPE svg PUBLIC "-//W3C//DTD SVG 1.1//EN" "http://www.w3.org/Graphics/SVG/1.1/DTD/svg11.dtd">
<svg xmlns="http://www.w3.org/2000/svg" xmlns:xlink="http://www.w3.org/1999/xlink" version="1.1" id="Capa_1" x="0px" y="0px" viewBox="0 0 475.25 475.25" style="enable-background:new 0 0 475.25 475.25;" xml:space="preserve" width="512px" height="512px">
<g>
	<path d="M373.896,196.448c-7.463,6.354-16.536,11.937-26.849,16.697c19.901,24.352,31.877,55.422,31.877,89.255   c0,77.918-63.384,141.304-141.296,141.304c-77.918,0-141.303-63.386-141.303-141.304c0-33.833,11.977-64.903,31.877-89.255   c-10.312-4.76-19.377-10.344-26.848-16.697C78.528,225.753,64.78,262.466,64.78,302.401c0,95.309,77.54,172.85,172.85,172.85   s172.842-77.54,172.842-172.85C410.471,262.458,396.731,225.753,373.896,196.448z" fill="#FFFFFF"/>
	<path d="M294.791,359.563c-31.515,31.515-82.809,31.515-114.324,0c-6.161-6.161-16.144-6.161-22.305,0   c-6.161,6.161-6.161,16.15,0,22.305c21.912,21.902,50.685,32.856,79.466,32.856c28.781,0,57.555-10.953,79.467-32.856   c6.161-6.155,6.161-16.144,0-22.305C310.935,353.402,300.953,353.402,294.791,359.563z" fill="#FFFFFF"/>
	<path d="M237.629,210.311c74.337,0,134.595-25.431,134.595-56.809c0-19.754-23.929-37.144-60.205-47.327l5.423-22.904l15.264-64.54   v-0.008C332.706,8.387,290.14,0,237.629,0c-52.51,0-95.077,8.387-95.077,18.723v0.008l15.264,64.54l5.423,22.904   c-36.275,10.183-60.212,27.573-60.212,47.327C103.026,184.88,163.292,210.311,237.629,210.311z" fill="#FFFFFF"/>
	<path d="M299.004,228.094c-2.819-1.139-5.745-1.948-8.833-1.948c-5.561,0-10.707,2.164-15.265,5.653   c-9.989,7.648-16.844,22.358-16.844,39.479c0,4.76,0.694,9.219,1.694,13.494c-6.346-4.213-13.94-6.693-22.127-6.693   c-5.699,0-11.09,1.224-15.997,3.366c0.555-3.275,0.948-6.647,0.948-10.167c0-16.588-6.439-30.937-15.928-38.778   c-4.767-3.935-10.251-6.353-16.18-6.353c-3.729,0-7.248,1.071-10.582,2.711c-12.508,6.161-21.527,22.727-21.527,42.42   c0,7.825,1.479,15.119,4.005,21.496c0.438,1.125,1.509,1.872,2.711,1.918c1.21,0.046,2.326-0.631,2.85-1.718   c4.042-8.395,12.592-14.194,22.543-14.194c8.21,0,15.303,4.074,19.861,10.173c-7.831,7.317-12.8,17.661-12.8,29.222   c0,22.134,17.945,40.095,40.095,40.095c22.135,0,40.087-17.961,40.087-40.095c0-9.898-3.719-18.84-9.665-25.832   c4.167-8.025,12.446-13.563,22.12-13.563c9.95,0,18.499,5.808,22.543,14.202c0.523,1.086,1.641,1.755,2.849,1.717   c1.202-0.045,2.265-0.793,2.711-1.918c2.527-6.377,4.005-13.678,4.005-21.503C322.279,250.684,312.413,233.517,299.004,228.094z" fill="#FFFFFF"/>
</g>
<g>
</g>
<g>
</g>
<g>
</g>
<g>
</g>
<g>
</g>
<g>
</g>
<g>
</g>
<g>
</g>
<g>
</g>
<g>
</g>
<g>
</g>
<g>
</g>
<g>
</g>
<g>
</g>
<g>
</g>
</svg>
