<svg width="100" height="100" xmlns="http://www.w3.org/2000/svg">
 <!-- Created with Method Draw - http://github.com/duopixel/Method-Draw/ -->

 <g>
  <title>background</title>
  <rect fill="none" id="canvas_background" height="102" width="102" y="-1" x="-1"/>
  <g display="none" overflow="visible" y="0" x="0" height="100%" width="100%" id="canvasGrid">
   <rect fill="url(#gridpattern)" stroke-width="0" y="0" x="0" height="100%" width="100%"/>
  </g>
 </g>
 <g>
  <title>Layer 1</title>
  <!-- Created with Method Draw - http://github.com/duopixel/Method-Draw/ -->
  <g transform="matrix(2.2791349030193886,0,0,2.2791349030193886,6.597821081458052,-0.7324870456049036) " id="svg_48">
   <title fill="#6666cc" transform="translate(0,0.17550519108772278) translate(0,0.17550519108772278) translate(2.106062412261963,1.755051851272583) translate(-3.2215068340301514,-2.738281011581421) translate(3.8932573795318604,2.335954427719116) translate(-0.9750044345855713,-2.275010347366333) translate(-3.900017738342285,1.6250073909759521) translate(1.8281248807907104,-0.1406249850988388) translate(-22.781248092651367,-6.187499523162842) translate(-7.312499523162842,1.2656248807907104) translate(14.765624046325684,-2.812499761581421) translate(4.218749523162842,-3.093749761581421) translate(-10.124999046325684,3.093749761581421) translate(0.2812499701976776,-0.4218749701976776) translate(48.234371185302734,1.2656248807907104) translate(-49.499996185302734,-1.8281248807907104) translate(15.781248092651367,0) translate(0,3.124998092651367) ">Layer 1</title>
   <g id="svg_24">
    <g id="svg_40" transform="matrix(0.09443308936841177,0,0,0.09443308936841177,0,0) ">
     <g id="svg_41">
      <path d="m315.194233,16.848328c-39.909,-8.588 -80.579,11.395 -107.453,48.084c15.789,18.219 27.956,41.584 34.183,68.297c11.348,48.672 0.111,96.108 -26.018,126.297c9.242,8.449 19.882,15.001 31.677,19.133l-18.712,17.792l17.062,3.672l-44.668,146.533l-42.467,-138.47l17.622,-4.108l-19.014,-17.469c51.811,-19.15 80.376,-85.054 64.448,-153.38c-16.983,-72.846 -78.106,-120.857 -136.522,-107.239c-58.416,13.618 -92.005,83.711 -75.023,156.554c15.928,68.326 70.691,114.804 125.63,109.068l-9.328,24.077l22.425,-5.229l42.413,138.296l19.63,0l44.665,-146.523l23.125,4.977l-9.739,-23.914c55.028,4.797 108.99,-42.608 123.749,-111.196c15.737,-73.127 -19.045,-142.634 -77.685,-155.252zm-268.405,189.319c-38.602,-43.633 -13.891,-107.882 -12.821,-110.597l6.977,2.753l6.98,2.744c-0.228,0.58 -22.36,58.47 10.099,95.16l-11.235,9.94zm320.671,-42.802l-13.708,-6.09c19.887,-44.77 -18.671,-93.292 -19.062,-93.776l5.828,-4.722l-5.822,4.729l11.643,-9.456c1.838,2.264 44.771,56.073 21.121,109.315z" id="svg_42" fill="#6666cc"/>
     </g>
    </g>
    <g id="svg_39" transform="matrix(0.09443308936841177,0,0,0.09443308936841177,0,0) "/>
    <g id="svg_38" transform="matrix(0.09443308936841177,0,0,0.09443308936841177,0,0) "/>
    <g id="svg_37" transform="matrix(0.09443308936841177,0,0,0.09443308936841177,0,0) "/>
    <g id="svg_36" transform="matrix(0.09443308936841177,0,0,0.09443308936841177,0,0) "/>
    <g id="svg_35" transform="matrix(0.09443308936841177,0,0,0.09443308936841177,0,0) "/>
    <g id="svg_34" transform="matrix(0.09443308936841177,0,0,0.09443308936841177,0,0) "/>
    <g id="svg_33" transform="matrix(0.09443308936841177,0,0,0.09443308936841177,0,0) "/>
    <g id="svg_32" transform="matrix(0.09443308936841177,0,0,0.09443308936841177,0,0) "/>
    <g id="svg_31" transform="matrix(0.09443308936841177,0,0,0.09443308936841177,0,0) "/>
    <g id="svg_30" transform="matrix(0.09443308936841177,0,0,0.09443308936841177,0,0) "/>
    <g id="svg_29" transform="matrix(0.09443308936841177,0,0,0.09443308936841177,0,0) "/>
    <g id="svg_28" transform="matrix(0.09443308936841177,0,0,0.09443308936841177,0,0) "/>
    <g id="svg_27" transform="matrix(0.09443308936841177,0,0,0.09443308936841177,0,0) "/>
    <g id="svg_26" transform="matrix(0.09443308936841177,0,0,0.09443308936841177,0,0) "/>
    <g id="svg_25" transform="matrix(0.09443308936841177,0,0,0.09443308936841177,0,0) "/>
   </g>
  </g>
 </g>
</svg>