<svg width="100" height="100" xmlns="http://www.w3.org/2000/svg">
 <!-- Created with Method Draw - http://github.com/duopixel/Method-Draw/ -->

 <g>
  <title>background</title>
  <rect fill="none" id="canvas_background" height="102" width="102" y="-1" x="-1"/>
  <g display="none" overflow="visible" y="0" x="0" height="100%" width="100%" id="canvasGrid">
   <rect fill="url(#gridpattern)" stroke-width="0" y="0" x="0" height="100%" width="100%"/>
  </g>
 </g>
 <g>
  <title>Layer 1</title>
  <!-- Created with Method Draw - http://github.com/duopixel/Method-Draw/ -->
  <g stroke="null" transform="matrix(0.9829518916334555,0,0,0.9829518916334555,-6.2684189089566695,-1.1835608342256916) " id="svg_50">
   <title fill="#2d9e2d" stroke="null" transform="translate(-2.7390024662017822,-1.1738581657409668) translate(13.62945556640625,3.4073638916015625) translate(-118.12499237060547,-62.437496185302734) translate(113.12499237060547,0) translate(0,62.5) ">Layer 1</title>
   <!-- Created with Method Draw - http://github.com/duopixel/Method-Draw/ -->
   <g stroke="null" id="svg_25" transform="matrix(2.2791349030193886,0,0,2.2791349030193886,6.597821081458052,-0.7324870456049036) ">
    <title fill="#2d9e2d" stroke="null" transform="translate(-1.2017728090286255,-0.5150455236434937) translate(5.980100631713867,1.4950251579284668) translate(-51.82887268066406,-27.395261764526367) translate(49.63505935668945,0) translate(0,27.422685623168945) ">Layer 1</title>
    <g stroke="null" id="svg_26">
     <g stroke="null" transform="matrix(0.09443308936841177,0,0,0.09443308936841177,0,0) " id="svg_42">
      <g stroke="null" id="svg_43">
       <path stroke="null" fill="#2d9e2d" id="svg_44" d="m342.562987,27.516237c-39.909,-8.588 -80.579,11.395 -107.453,48.084c15.789,18.219 27.956,41.584 34.183,68.297c11.348,48.672 0.111,96.108 -26.018,126.297c9.242,8.449 19.882,15.001 31.677,19.133l-18.712,17.792l17.062,3.672l-44.668,146.533l-42.467,-138.47l17.622,-4.108l-19.014,-17.469c51.811,-19.15 80.376,-85.054 64.448,-153.38c-16.983,-72.846 -78.106,-120.857 -136.522,-107.239c-58.416,13.618 -92.005,83.711 -75.023,156.554c15.928,68.326 70.691,114.804 125.63,109.068l-9.328,24.077l22.425,-5.229l42.413,138.296l19.63,0l44.665,-146.523l23.125,4.977l-9.739,-23.914c55.028,4.797 108.99,-42.608 123.749,-111.196c15.737,-73.127 -19.045,-142.634 -77.685,-155.252zm-268.405,189.319c-38.602,-43.633 -13.891,-107.882 -12.821,-110.597l6.977,2.753l6.98,2.744c-0.228,0.58 -22.36,58.47 10.099,95.16l-11.235,9.94zm320.671,-42.802l-13.708,-6.09c19.887,-44.77 -18.671,-93.292 -19.062,-93.776l5.828,-4.722l-5.822,4.729l11.643,-9.456c1.838,2.264 44.771,56.073 21.121,109.315z"/>
      </g>
     </g>
     <g stroke="null" transform="matrix(0.09443308936841177,0,0,0.09443308936841177,0,0) " id="svg_41"/>
     <g stroke="null" transform="matrix(0.09443308936841177,0,0,0.09443308936841177,0,0) " id="svg_40"/>
     <g stroke="null" transform="matrix(0.09443308936841177,0,0,0.09443308936841177,0,0) " id="svg_39"/>
     <g stroke="null" transform="matrix(0.09443308936841177,0,0,0.09443308936841177,0,0) " id="svg_38"/>
     <g stroke="null" transform="matrix(0.09443308936841177,0,0,0.09443308936841177,0,0) " id="svg_37"/>
     <g stroke="null" transform="matrix(0.09443308936841177,0,0,0.09443308936841177,0,0) " id="svg_36"/>
     <g stroke="null" transform="matrix(0.09443308936841177,0,0,0.09443308936841177,0,0) " id="svg_35"/>
     <g stroke="null" transform="matrix(0.09443308936841177,0,0,0.09443308936841177,0,0) " id="svg_34"/>
     <g stroke="null" transform="matrix(0.09443308936841177,0,0,0.09443308936841177,0,0) " id="svg_33"/>
     <g stroke="null" transform="matrix(0.09443308936841177,0,0,0.09443308936841177,0,0) " id="svg_32"/>
     <g stroke="null" transform="matrix(0.09443308936841177,0,0,0.09443308936841177,0,0) " id="svg_31"/>
     <g stroke="null" transform="matrix(0.09443308936841177,0,0,0.09443308936841177,0,0) " id="svg_30"/>
     <g stroke="null" transform="matrix(0.09443308936841177,0,0,0.09443308936841177,0,0) " id="svg_29"/>
     <g stroke="null" transform="matrix(0.09443308936841177,0,0,0.09443308936841177,0,0) " id="svg_28"/>
     <g stroke="null" transform="matrix(0.09443308936841177,0,0,0.09443308936841177,0,0) " id="svg_27"/>
    </g>
   </g>
  </g>
 </g>
</svg>