<?xml version="1.0" encoding="iso-8859-1"?>
<!-- Generator: Adobe Illustrator 18.0.0, SVG Export Plug-In . SVG Version: 6.00 Build 0)  -->
<!DOCTYPE svg PUBLIC "-//W3C//DTD SVG 1.1//EN" "http://www.w3.org/Graphics/SVG/1.1/DTD/svg11.dtd">
<svg xmlns="http://www.w3.org/2000/svg" xmlns:xlink="http://www.w3.org/1999/xlink" version="1.1" id="Capa_1" x="0px" y="0px" viewBox="0 0 296 296" style="enable-background:new 0 0 296 296;" xml:space="preserve" width="512px" height="512px">
<g>
	<path d="M213.792,112.144c-2.463,1.771-5.026,3.293-7.885,4.514c-6.787,2.9-16.228,4.752-25.878,5.114   c3.46,8.328,8.65,17.32,16.37,25.502c7.58,8.034,7.227,20.692-0.807,28.272c-8.029,7.578-20.68,7.218-28.265-0.819   c-8.201-8.692-14.433-17.913-19.178-26.93c-4.745,9.017-10.977,18.237-19.179,26.93c-7.58,8.031-20.237,8.401-28.272,0.819   c-8.034-7.58-8.401-20.238-0.819-28.272c7.726-8.188,12.891-17.187,16.351-25.52c-9.465-0.41-18.733-2.25-25.397-5.098   c-2.857-1.221-5.738-2.742-8.201-4.512C45.093,154.065,24,208.436,24,264.924v11.91C24,287.419,33.004,296,43.59,296h209.667   c10.585,0,18.743-8.581,18.743-19.166v-11.91C272,208.436,251.331,154.065,213.792,112.144z" fill="#FFFFFF"/>
	<path d="M112.021,37.268c3.917,0.462,7.743,1.473,11.422,3.044c6.613,2.825,16.64,9.614,24.98,18.574   c8.34-8.96,18.367-15.749,24.979-18.573c3.68-1.572,7.506-2.583,11.422-3.045l17.598-17.598c3.295-3.295,4.281-8.251,2.498-12.557   C203.137,2.808,198.935,0,194.273,0h-91.701c-4.66,0-8.861,2.808-10.646,7.113c-1.783,4.306-0.798,9.262,2.498,12.557   L112.021,37.268z" fill="#FFFFFF"/>
	<path d="M95.742,105.161c6.035,2.579,15.415,4.181,24.478,4.181c5.009,0,9.478-0.538,13.364-1.479   c-0.867,4.005-2.084,8.561-3.797,13.398c-3.869,10.933-10.256,23.388-20.817,34.58c-2.843,3.013-2.706,7.771,0.308,10.613   c3.014,2.843,7.683,2.704,10.525-0.308C134.275,150.811,143,131.743,148,111.818v-0.006c4,20.391,14.123,39.258,28.348,54.334   c2.843,3.014,7.63,3.148,10.641,0.309c3.012-2.843,3.17-7.59,0.326-10.603c-10.588-11.22-16.97-23.697-20.838-34.647   c-1.719-4.869-3.243-9.469-4.107-13.488c4.018,1.037,8.63,1.604,13.63,1.604v0.01c9,0,18.755-1.596,24.79-4.174   c7.127-3.044,12.797-8.678,15.684-15.869c2.887-7.19,2.879-15.073-0.165-22.199c-4.571-10.704-15.007-17.62-26.648-17.62   c-3.924,0-7.735,0.787-11.367,2.338c-6.727,2.875-15.565,9.728-22.005,17.053c-0.011,0.013-0.016,0.025-0.027,0.038   c-3.532,4.021-6.14,7.922-7.835,11.642c-0.002-0.004-0.002-0.008-0.004-0.012c-1.7-3.734-4.323-7.64-7.874-11.679   c-6.44-7.325-15.287-14.173-22.015-17.048c-3.631-1.551-7.462-2.334-11.386-2.334c-11.641,0-22.116,6.918-26.687,17.621   C77.416,74.215,77.33,82.1,80.217,89.29C83.102,96.481,88.617,102.118,95.742,105.161z M167.562,78.763   c5.595-6.363,12.607-11.438,16.643-13.161c1.758-0.751,3.607-1.132,5.494-1.132c5.623,0,10.684,3.341,12.893,8.512   c1.471,3.441,1.512,7.249,0.118,10.722c-1.394,3.473-4.057,6.194-7.499,7.665c-3.354,1.432-10.599,2.974-18.584,2.974   c-10.373,0-14.942-2.524-15.435-3.677C160.773,89.684,161.795,85.324,167.562,78.763z M94.256,72.98   c2.207-5.17,7.267-8.511,12.892-8.511c1.888,0,3.735,0.381,5.493,1.132c4.036,1.724,11.049,6.798,16.643,13.161   c5.768,6.562,6.791,10.921,6.371,11.902c-0.492,1.152-5.061,3.677-15.435,3.677c-7.985,0-15.231-1.542-18.585-2.975   c-3.441-1.47-6.104-4.191-7.498-7.664C92.742,80.23,92.785,76.423,94.256,72.98z" fill="#FFFFFF"/>
</g>
<g>
</g>
<g>
</g>
<g>
</g>
<g>
</g>
<g>
</g>
<g>
</g>
<g>
</g>
<g>
</g>
<g>
</g>
<g>
</g>
<g>
</g>
<g>
</g>
<g>
</g>
<g>
</g>
<g>
</g>
</svg>
